<svg id="svg" version="1.1" xmlns="http://www.w3.org/2000/svg" xmlns:xlink="http://www.w3.org/1999/xlink" width="400" height="474.5762711864407" viewBox="0, 0, 400,474.5762711864407"><g id="svgg"><path id="path0" d="M112.536 0.515 C 66.266 4.080,25.100 34.942,7.827 79.013 C 1.454 95.272,0.191 104.480,0.628 131.477 C 1.246 169.573,6.779 188.440,29.102 228.571 C 43.451 254.368,44.371 257.331,58.355 322.760 C 82.664 436.506,100.143 472.388,132.233 474.418 C 138.530 474.817,139.764 474.343,144.299 469.784 C 153.604 460.429,156.138 450.039,163.438 391.283 C 172.852 315.514,181.911 289.656,199.065 289.599 C 218.331 289.535,227.399 313.698,236.318 388.862 C 243.914 452.890,247.447 466.048,258.967 473.210 C 264.866 476.878,279.647 473.492,287.453 466.684 C 310.211 446.833,321.074 416.551,344.533 307.570 C 355.997 254.310,356.338 253.267,370.339 228.539 C 393.777 187.142,400.431 162.296,399.381 120.097 C 396.933 21.720,287.838 -33.344,206.309 22.648 C 199.086 27.609,200.328 27.532,194.431 23.383 C 170.183 6.324,141.415 -1.710,112.536 0.515 M129.806 18.417 C 153.851 20.261,169.727 26.847,192.692 44.504 C 196.496 47.429,199.059 48.263,201.759 47.454 C 203.657 46.885,204.535 46.286,214.035 39.083 C 265.790 -0.162,340.872 17.270,370.627 75.439 C 379.802 93.377,381.928 104.014,381.442 129.540 C 380.747 166.019,376.041 182.259,355.693 218.396 C 340.289 245.754,338.324 251.496,328.101 299.031 C 304.590 408.350,292.772 442.980,275.161 454.157 C 266.308 459.775,264.262 456.953,260.300 433.656 C 258.794 424.798,257.569 415.480,252.536 374.576 C 243.286 299.412,229.195 271.878,200.000 271.924 C 182.796 271.951,171.700 281.584,162.522 304.462 C 155.102 322.956,152.330 337.029,145.525 390.753 C 137.503 454.087,135.857 459.832,126.998 455.418 C 107.886 445.894,94.586 408.259,70.706 296.126 C 61.085 250.953,58.962 244.845,43.352 217.433 C 22.211 180.311,15.630 152.863,18.327 113.055 C 20.934 74.581,47.456 39.198,84.019 25.416 C 101.752 18.732,112.495 17.090,129.806 18.417 " stroke="none" fill="#000000" fill-rule="evenodd"></path></g></svg>