<svg id="svg" version="1.1" xmlns="http://www.w3.org/2000/svg" xmlns:xlink="http://www.w3.org/1999/xlink" width="400" height="400" viewBox="0, 0, 400,400"><g id="svgg"><path id="path0" d="M197.059 109.547 C 172.261 113.224,150.503 124.540,144.264 137.005 C 143.386 138.760,141.565 143.578,140.219 147.712 C 135.428 162.424,130.261 171.195,121.169 180.044 C 105.742 195.060,107.107 217.636,124.706 238.554 C 134.062 249.673,138.425 253.403,140.686 252.213 C 144.409 250.252,143.976 248.658,138.007 242.350 C 124.216 227.776,118.791 218.428,117.884 207.679 C 117.066 197.977,119.570 191.638,127.119 184.296 C 136.301 175.368,142.076 165.383,147.318 149.373 C 152.374 133.932,160.366 127.229,181.968 120.312 C 215.832 109.470,242.198 121.403,250.449 151.307 C 254.106 164.561,251.330 198.825,246.838 195.881 C 246.009 195.338,244.081 194.519,242.554 194.062 C 240.224 193.363,239.836 193.013,240.140 191.876 C 243.361 179.835,241.907 160.757,236.948 150.000 C 230.476 135.963,213.401 123.696,212.545 132.468 C 212.320 134.767,212.446 134.906,218.118 138.606 C 231.248 147.173,237.926 168.787,233.468 188.284 L 232.635 191.927 228.899 192.021 C 209.389 192.510,194.118 208.933,194.118 229.424 L 194.118 235.458 191.993 235.039 C 177.410 232.163,163.161 209.452,159.433 183.145 C 158.276 174.976,157.941 175.213,179.412 168.974 C 196.401 164.037,201.878 161.542,206.146 156.795 C 212.664 149.545,213.852 139.869,208.225 139.869 C 206.265 139.869,204.575 141.815,204.575 144.070 C 204.575 152.060,198.496 155.981,176.176 162.389 C 159.988 167.037,157.047 168.366,153.143 172.801 C 143.889 183.315,138.348 213.725,145.687 213.725 C 148.472 213.725,149.051 212.498,149.745 205.122 C 150.313 199.091,152.063 189.542,152.601 189.542 C 152.716 189.542,153.316 191.822,153.935 194.608 C 156.454 205.954,161.316 216.994,167.681 225.817 L 171.452 231.046 170.749 239.748 C 169.657 253.259,168.214 254.579,153.922 255.147 C 129.370 256.122,112.418 268.004,112.418 284.237 C 112.418 289.019,113.445 290.850,116.127 290.850 C 118.383 290.850,119.608 288.788,119.608 284.992 C 119.608 271.560,132.632 263.437,156.209 262.164 C 171.199 261.354,176.494 257.230,177.496 245.584 C 177.690 243.340,177.995 240.533,178.175 239.348 L 178.502 237.192 180.591 238.475 C 183.685 240.375,190.439 242.484,193.432 242.484 C 195.913 242.484,196.144 242.657,197.659 245.646 C 213.115 276.147,257.030 271.364,265.658 238.239 C 268.588 226.990,265.322 213.032,257.804 204.670 L 254.852 201.386 256.173 194.795 C 264.905 151.235,252.042 119.527,222.222 111.108 C 217.408 109.748,202.102 108.799,197.059 109.547 M239.768 200.722 C 269.832 210.875,263.586 257.193,231.949 258.706 C 205.985 259.947,191.508 229.417,208.424 209.095 C 215.464 200.638,228.894 197.050,239.768 200.722 M229.552 205.016 C 229.090 205.201,227.653 207.457,226.359 210.029 C 221.832 219.026,216.015 226.467,210.592 230.198 C 206.345 233.120,205.805 236.118,209.200 237.935 C 214.123 240.570,234.641 216.610,234.641 208.226 C 234.641 205.834,231.869 204.085,229.552 205.016 M263.098 250.942 C 260.875 254.150,260.220 253.314,271.871 262.151 C 281.811 269.690,283.109 271.222,281.736 273.788 C 279.516 277.936,277.263 276.347,262.880 260.492 L 258.767 255.958 256.218 258.535 L 253.668 261.111 262.719 270.915 C 275.151 284.381,279.537 285.995,286.040 279.492 C 293.215 272.317,290.990 267.638,274.425 255.065 C 264.157 247.272,265.343 247.703,263.098 250.942 " stroke="none" fill="#000000" fill-rule="evenodd"></path></g></svg>