<svg id="svg" version="1.1" xmlns="http://www.w3.org/2000/svg" xmlns:xlink="http://www.w3.org/1999/xlink" width="400" height="400" viewBox="0, 0, 400,400"><g id="svgg"><path id="path0" d="M184.306 97.234 C 181.692 99.926,181.197 100.845,182.168 101.204 C 184.948 102.231,207.281 123.923,215.703 133.777 C 220.412 139.287,226.667 147.422,226.667 148.037 C 226.667 148.226,227.134 148.881,227.704 149.493 C 228.275 150.106,229.212 151.533,229.787 152.665 C 230.363 153.796,230.978 154.847,231.156 155.000 C 231.333 155.153,231.831 156.090,232.263 157.083 C 232.696 158.076,233.238 158.889,233.469 158.889 C 233.700 158.889,233.897 159.326,233.907 159.861 C 233.916 160.396,234.291 161.319,234.740 161.912 C 235.189 162.505,235.556 163.442,235.556 163.995 C 235.556 164.548,235.751 165.000,235.990 165.000 C 236.229 165.000,236.765 166.188,237.182 167.639 C 237.598 169.090,238.116 170.528,238.331 170.833 C 240.344 173.685,243.640 215.971,245.055 257.083 L 245.748 277.222 250.652 277.222 L 255.556 277.222 255.556 264.592 C 255.556 256.639,255.254 249.696,254.740 245.842 C 254.292 242.476,253.637 232.972,253.286 224.722 C 252.321 202.076,251.149 187.621,249.119 173.333 C 248.924 171.958,248.575 170.583,248.343 170.278 C 248.112 169.972,247.745 168.740,247.529 167.540 C 247.078 165.042,245.944 162.351,242.365 155.278 C 240.973 152.528,239.559 149.717,239.223 149.032 C 238.886 148.347,238.424 147.784,238.194 147.782 C 237.965 147.780,237.778 147.442,237.778 147.031 C 237.778 146.620,237.278 145.831,236.667 145.278 C 236.056 144.725,235.556 144.044,235.556 143.766 C 235.556 143.319,233.011 139.622,232.199 138.889 C 232.029 138.736,231.294 137.736,230.564 136.667 C 229.835 135.597,228.597 133.943,227.813 132.992 C 227.030 132.040,225.389 130.047,224.167 128.563 C 219.008 122.300,204.330 107.353,197.209 101.111 C 194.943 99.125,192.375 96.813,191.502 95.972 C 189.144 93.703,187.444 94.001,184.306 97.234 M158.097 123.597 C 148.728 132.912,148.466 133.393,151.517 135.709 C 153.707 137.371,161.487 144.465,169.931 152.500 C 181.475 163.485,183.889 166.029,183.889 167.215 C 183.889 167.870,184.165 168.923,184.503 169.554 C 184.864 170.229,185.084 173.305,185.037 177.018 C 184.985 181.070,185.163 183.333,185.534 183.333 C 185.851 183.333,186.111 183.771,186.111 184.306 C 186.112 184.840,187.204 186.669,188.539 188.369 C 195.102 196.729,207.919 197.079,214.951 189.090 C 216.720 187.081,217.423 186.667,219.065 186.667 C 220.154 186.667,221.200 186.417,221.389 186.111 C 221.578 185.806,222.177 185.556,222.721 185.556 C 226.110 185.556,231.667 177.209,231.667 172.117 C 231.667 170.154,231.416 169.297,229.633 165.170 C 228.854 163.368,225.920 160.603,223.714 159.593 C 223.046 159.288,221.845 158.729,221.044 158.352 C 219.625 157.684,215.223 157.799,212.222 158.583 C 211.009 158.900,210.626 158.609,209.191 156.278 C 206.654 152.159,173.692 119.857,167.848 115.765 C 166.826 115.049,166.138 115.601,158.097 123.597 M125.367 156.389 C 123.952 157.764,122.541 158.889,122.231 158.889 C 121.920 158.889,121.667 159.639,121.667 160.556 C 121.667 161.712,121.938 162.222,122.554 162.222 C 123.042 162.222,125.550 163.597,128.128 165.278 C 130.707 166.958,132.951 168.333,133.116 168.333 C 133.281 168.333,135.156 169.458,137.281 170.833 C 139.407 172.208,141.388 173.333,141.684 173.333 C 141.980 173.333,142.222 173.554,142.222 173.824 C 142.222 174.094,142.660 174.455,143.194 174.627 C 143.729 174.798,145.417 175.667,146.944 176.557 C 151.261 179.071,155.070 181.201,157.500 182.460 C 158.722 183.093,159.847 183.739,160.000 183.896 C 160.333 184.238,164.292 186.172,167.837 187.724 L 170.397 188.844 170.158 191.783 C 170.026 193.400,169.649 195.428,169.320 196.291 C 168.487 198.469,168.508 231.365,169.345 236.111 C 169.695 238.097,170.234 241.972,170.543 244.722 C 170.852 247.472,171.369 251.097,171.692 252.778 C 172.015 254.458,172.417 256.772,172.587 257.920 C 172.756 259.068,173.119 260.145,173.392 260.314 C 173.665 260.483,173.889 261.467,173.889 262.500 C 173.889 263.533,174.139 264.533,174.444 264.722 C 174.750 264.911,175.000 265.786,175.000 266.667 C 175.000 267.547,175.221 268.404,175.491 268.571 C 175.762 268.739,176.151 269.997,176.357 271.369 C 176.563 272.741,176.966 274.009,177.254 274.187 C 177.542 274.364,177.778 275.120,177.778 275.866 C 177.778 277.209,177.830 277.222,183.056 277.222 C 189.092 277.222,189.315 276.978,187.222 272.647 C 186.611 271.382,186.111 269.909,186.111 269.373 C 186.111 268.837,185.861 268.244,185.556 268.056 C 185.250 267.867,185.000 267.117,185.000 266.389 C 185.000 265.661,184.779 264.929,184.509 264.762 C 184.240 264.596,183.840 263.018,183.623 261.257 C 183.405 259.496,183.030 257.806,182.790 257.500 C 182.550 257.194,182.193 255.944,181.995 254.722 C 181.798 253.500,181.384 251.125,181.074 249.444 C 179.093 238.690,178.425 230.256,178.432 216.111 C 178.439 202.493,178.909 197.159,181.049 186.389 C 181.828 182.464,181.799 182.222,180.548 182.222 C 179.933 182.222,178.995 182.001,178.465 181.731 C 177.934 181.462,176.875 180.995,176.111 180.695 C 171.871 179.031,153.323 169.432,152.222 168.333 C 151.919 168.031,148.800 166.299,146.810 165.329 C 146.125 164.995,145.562 164.535,145.560 164.306 C 145.558 164.076,145.308 163.889,145.006 163.889 C 144.703 163.889,142.701 162.764,140.556 161.389 C 138.410 160.014,136.408 158.889,136.105 158.889 C 135.803 158.889,135.556 158.639,135.556 158.333 C 135.556 158.028,135.310 157.778,135.011 157.778 C 134.711 157.778,133.098 156.903,131.426 155.833 C 127.733 153.471,128.435 153.406,125.367 156.389 M220.972 196.835 C 219.826 197.156,218.889 197.624,218.889 197.876 C 218.889 198.127,218.561 198.333,218.159 198.333 C 217.758 198.333,216.731 199.063,215.876 199.956 L 214.321 201.578 212.421 200.511 C 211.377 199.925,210.013 199.444,209.391 199.444 C 208.769 199.444,207.789 199.192,207.213 198.884 C 204.879 197.635,196.168 200.977,193.468 204.158 C 190.371 207.806,190.000 208.369,190.000 209.418 C 190.000 210.008,189.750 210.644,189.444 210.833 C 188.356 211.506,188.800 219.261,190.089 222.089 C 191.411 224.989,195.511 229.297,198.077 230.481 C 198.982 230.899,200.156 231.462,200.687 231.731 C 201.217 232.001,202.726 232.222,204.040 232.222 C 205.909 232.222,206.449 232.434,206.521 233.194 C 206.571 233.729,206.875 235.354,207.195 236.806 C 207.516 238.257,208.039 240.632,208.359 242.083 C 209.391 246.771,209.982 250.154,210.856 256.389 C 211.327 259.750,211.968 264.250,212.279 266.389 C 212.591 268.528,212.977 271.840,213.137 273.750 L 213.428 277.222 223.712 277.222 L 233.995 277.222 233.685 267.083 C 233.226 252.033,231.278 231.083,229.739 224.648 C 229.521 223.735,229.822 223.312,231.053 222.802 C 233.340 221.855,236.189 218.998,237.639 216.197 C 238.975 213.618,239.450 206.524,238.333 205.833 C 238.028 205.644,237.778 205.133,237.778 204.696 C 237.778 203.964,237.253 203.195,235.000 200.621 C 231.764 196.925,226.105 195.398,220.972 196.835 " stroke="none" fill="#000000" fill-rule="evenodd"></path></g></svg>