<svg id="svg" version="1.1" xmlns="http://www.w3.org/2000/svg" xmlns:xlink="http://www.w3.org/1999/xlink" width="400" height="400" viewBox="0, 0, 400,400"><g id="svgg"><path id="path0" d="M147.656 1.188 C 92.724 10.538,52.073 52.188,43.591 107.813 C 42.123 117.441,42.123 282.559,43.591 292.188 C 57.449 383.064,159.004 430.028,234.616 380.528 C 251.900 369.213,240.162 351.298,222.620 362.219 C 156.788 403.204,72.343 361.678,64.850 284.635 C 63.871 274.572,63.871 125.428,64.850 115.365 C 73.609 25.303,183.474 -10.670,244.412 56.572 C 264.438 78.670,270.300 98.721,270.308 145.142 C 270.312 167.356,270.531 173.229,271.437 175.399 C 274.685 183.172,287.815 183.172,291.063 175.399 C 292.450 172.079,292.674 125.266,291.365 112.387 C 284.096 40.896,217.431 -10.688,147.656 1.188 M158.594 48.162 C 102.859 56.533,73.220 112.370,98.170 161.993 C 104.264 174.114,118.463 188.628,129.481 194.000 C 131.988 195.222,133.006 196.287,133.677 198.393 C 143.997 230.754,188.595 232.233,200.130 200.597 C 201.640 196.456,202.222 195.782,206.407 193.329 C 259.109 162.442,257.705 85.818,203.906 56.801 C 191.161 49.927,171.633 46.204,158.594 48.162 M183.724 72.083 C 225.259 85.456,236.939 137.820,204.929 167.151 C 199.091 172.501,198.163 172.777,196.543 169.645 C 186.119 149.488,151.658 149.191,138.440 169.145 L 136.189 172.544 131.860 169.146 C 84.472 131.954,126.336 53.605,183.724 72.083 M140.813 103.121 C 130.606 109.344,134.998 124.987,146.955 124.997 C 158.782 125.007,163.382 108.891,153.254 102.930 C 150.072 101.057,144.046 101.149,140.813 103.121 M181.438 103.121 C 171.231 109.344,175.623 124.987,187.580 124.997 C 199.407 125.007,204.007 108.891,193.879 102.930 C 190.697 101.057,184.671 101.149,181.438 103.121 M172.108 176.837 C 177.519 179.098,181.173 185.478,180.151 190.881 C 178.156 201.440,165.654 205.446,158.142 197.934 C 148.318 188.110,159.317 171.493,172.108 176.837 M257.195 203.868 C 250.102 205.620,249.219 208.520,249.219 230.053 L 249.219 247.656 231.445 247.657 C 203.655 247.659,205.078 245.936,205.078 279.584 C 205.078 313.555,203.588 311.711,231.055 311.716 L 249.219 311.719 249.222 329.883 C 249.226 357.341,247.400 355.859,281.250 355.859 C 315.100 355.859,313.274 357.341,313.278 329.883 L 313.281 311.719 331.445 311.716 C 358.912 311.711,357.422 313.555,357.422 279.584 C 357.422 245.936,358.845 247.659,331.055 247.657 L 313.281 247.656 313.280 229.883 C 313.278 202.283,314.748 203.568,282.952 203.374 C 270.200 203.297,258.609 203.519,257.195 203.868 M291.407 242.773 C 291.409 269.967,290.982 269.531,317.694 269.531 L 335.938 269.531 335.938 279.648 L 335.938 289.765 317.243 290.000 C 290.659 290.333,291.409 289.561,291.407 316.602 L 291.406 334.375 281.250 334.375 L 271.094 334.375 271.093 316.602 C 271.091 289.561,271.841 290.333,245.257 290.000 L 226.563 289.765 226.563 279.648 L 226.563 269.531 244.806 269.531 C 271.518 269.531,271.091 269.967,271.093 242.773 L 271.094 225.000 281.250 225.000 L 291.406 225.000 291.407 242.773 " stroke="none" fill="#000000" fill-rule="evenodd"></path></g></svg>