<svg id="svg" version="1.1" xmlns="http://www.w3.org/2000/svg" xmlns:xlink="http://www.w3.org/1999/xlink" width="400" height="400" viewBox="0, 0, 400,400"><g id="svgg"><path id="path0" d="M160.500 21.608 C 52.934 40.811,4.088 167.629,71.929 251.564 C 105.326 292.885,112.700 309.171,116.048 349.000 C 117.294 363.824,118.508 367.821,123.301 372.872 C 130.141 380.082,129.093 379.954,181.283 379.978 L 228.066 380.000 232.971 377.515 C 242.731 372.569,245.893 365.606,245.956 348.924 C 246.021 331.779,244.509 332.635,275.856 332.000 L 300.555 331.500 307.186 328.232 C 325.295 319.309,329.302 310.182,329.792 276.750 L 330.154 252.000 335.609 252.000 C 348.741 252.000,358.965 241.623,358.990 228.270 C 359.006 220.077,356.555 215.725,342.952 199.792 L 330.257 184.921 329.734 165.711 C 327.182 71.937,249.431 5.731,160.500 21.608 M208.715 38.901 C 260.199 48.902,299.782 88.201,310.570 140.025 C 311.558 144.768,312.333 155.621,312.692 169.721 L 313.257 191.941 327.624 208.721 C 342.908 226.572,343.625 227.999,339.631 232.642 C 337.400 235.236,336.688 235.420,327.381 235.804 C 312.081 236.436,313.010 234.369,312.956 267.924 C 312.884 313.132,311.179 315.016,269.500 315.944 C 246.047 316.466,244.282 316.635,240.983 318.688 C 231.689 324.468,229.051 330.535,229.022 346.194 C 229.001 357.097,228.837 358.078,226.588 360.694 L 224.175 363.500 184.104 363.793 C 131.030 364.181,134.491 365.396,132.905 345.814 C 129.598 304.985,119.840 282.645,88.774 244.781 C 65.263 216.126,56.695 191.690,58.345 158.000 C 62.114 81.070,133.742 24.337,208.715 38.901 M166.345 69.856 C 115.917 84.678,103.379 146.559,143.525 182.489 C 154.675 192.469,154.404 191.630,154.996 218.000 C 155.741 251.255,156.377 252.002,183.898 251.996 C 211.261 251.990,211.254 251.998,212.076 220.549 C 212.786 193.396,212.600 193.916,226.357 180.500 C 263.158 144.609,252.007 87.382,205.000 70.896 C 195.994 67.738,175.435 67.184,166.345 69.856 M197.909 86.895 C 234.308 98.223,242.613 142.492,213.272 168.785 C 204.645 176.516,200.550 182.016,197.974 189.329 L 196.153 194.500 183.922 194.500 L 171.691 194.500 169.919 189.287 C 167.425 181.949,163.416 176.571,154.456 168.540 C 115.499 133.627,148.548 71.532,197.909 86.895 M195.352 217.250 C 195.699 220.137,195.987 225.537,195.991 229.250 L 196.000 236.000 184.000 236.000 L 172.000 236.000 172.000 224.000 L 172.000 212.000 183.361 212.000 L 194.721 212.000 195.352 217.250 " stroke="none" fill="#000000" fill-rule="evenodd"></path></g></svg>