<svg id="svg" version="1.1" xmlns="http://www.w3.org/2000/svg" xmlns:xlink="http://www.w3.org/1999/xlink" width="400" height="400" viewBox="0, 0, 400,400"><g id="svgg"><path id="path0" d="M260.793 4.792 C 234.532 17.020,218.608 52.298,228.091 77.239 C 230.070 82.445,229.270 83.655,213.076 99.923 L 195.971 117.108 206.532 127.538 L 217.093 137.967 241.639 113.362 L 266.185 88.757 259.914 76.879 C 239.646 38.487,289.030 8.474,313.711 44.184 C 318.006 50.397,318.324 52.449,317.316 67.395 L 316.209 83.791 332.605 82.684 C 347.551 81.676,349.603 81.994,355.816 86.289 C 391.531 110.974,361.512 160.353,323.114 140.082 L 311.227 133.807 269.114 175.581 C 229.516 214.859,226.642 217.283,221.000 216.162 L 215.000 214.969 214.000 188.018 L 213.000 161.067 187.435 156.117 L 161.870 151.167 122.320 190.680 C 84.044 228.920,82.592 230.126,77.255 228.097 C 39.839 213.872,-1.675 247.204,0.363 289.833 C 1.823 320.363,16.692 337.698,49.545 347.175 C 50.945 347.579,52.421 349.055,52.825 350.455 C 62.302 383.308,79.637 398.177,110.167 399.637 C 152.285 401.650,185.277 361.227,172.180 323.656 C 169.937 317.223,170.075 317.004,186.973 300.028 L 204.029 282.892 193.468 272.462 L 182.907 262.033 158.361 286.638 L 133.815 311.243 140.086 323.121 C 160.354 361.513,110.970 391.526,86.289 355.816 C 81.989 349.594,81.675 347.561,82.692 332.496 L 83.806 315.992 67.403 317.204 C 52.339 318.317,50.433 318.028,44.048 313.660 C 8.292 289.203,38.552 239.681,76.886 259.918 L 88.773 266.193 130.886 224.419 C 170.484 185.141,173.358 182.717,179.000 183.838 L 185.000 185.031 186.000 211.982 L 187.000 238.933 212.565 243.883 L 238.130 248.833 277.630 209.369 L 317.131 169.905 323.640 172.174 C 333.450 175.594,355.434 173.650,366.200 168.411 C 413.227 145.526,411.051 74.120,362.807 57.107 C 348.138 51.934,347.987 51.800,344.221 40.665 C 332.688 6.558,293.338 -10.362,260.793 4.792 M147.000 38.548 C 140.400 40.748,134.604 42.895,134.121 43.319 C 133.638 43.744,136.258 53.422,139.944 64.827 L 146.646 85.562 157.823 81.760 C 163.970 79.668,170.081 77.562,171.402 77.079 C 173.364 76.362,162.323 37.199,159.530 34.971 C 159.239 34.738,153.600 36.348,147.000 38.548 M64.981 66.019 L 55.113 76.038 75.019 96.019 C 98.021 119.108,96.306 118.496,107.424 107.584 C 118.589 96.626,119.043 97.956,96.464 75.462 C 73.477 52.561,77.151 53.664,64.981 66.019 M38.623 146.895 L 34.431 159.790 55.320 166.785 C 70.067 171.723,76.467 173.077,77.083 171.390 C 77.564 170.076,79.664 163.983,81.750 157.850 L 85.543 146.701 66.169 140.350 C 41.580 132.291,43.521 131.830,38.623 146.895 " stroke="none" fill="#000000" fill-rule="evenodd"></path></g></svg>