<svg id="svg" version="1.1" xmlns="http://www.w3.org/2000/svg" xmlns:xlink="http://www.w3.org/1999/xlink" width="400" height="400" viewBox="0, 0, 400,400"><g id="svgg"><path id="path0" d="M87.234 20.357 C 45.300 27.232,10.652 103.656,21.705 164.894 C 28.124 200.453,49.149 237.229,68.405 246.581 C 112.890 268.184,161.008 220.793,137.512 178.516 C 135.787 175.412,132.608 170.000,130.448 166.489 C 126.765 160.504,122.849 150.201,123.869 149.180 C 124.121 148.929,131.420 151.908,140.089 155.802 C 156.933 163.368,162.894 167.794,167.375 176.064 L 169.681 180.319 170.213 278.018 L 170.745 375.717 173.844 378.382 C 177.302 381.357,181.775 381.206,185.324 377.995 C 187.195 376.301,187.264 372.086,186.989 276.146 L 186.702 176.064 183.336 168.958 C 176.610 154.762,170.388 150.034,142.217 137.718 C 124.319 129.893,123.298 129.290,123.897 126.906 C 125.525 120.420,129.185 112.410,133.280 106.374 C 146.957 86.213,148.314 82.506,147.693 67.022 C 146.478 36.773,118.556 15.222,87.234 20.357 M294.681 20.250 C 254.613 27.367,239.088 69.604,264.195 103.191 C 269.873 110.788,274.456 120.121,275.973 127.177 L 276.670 130.418 260.941 137.183 C 226.761 151.884,218.198 159.209,213.186 178.032 C 210.929 186.510,211.011 374.071,213.273 377.301 C 216.303 381.627,225.074 381.292,227.317 376.764 C 227.798 375.794,228.431 331.436,228.723 278.191 L 229.255 181.383 232.159 175.876 C 233.756 172.848,236.945 168.778,239.245 166.834 C 242.977 163.678,274.429 148.606,275.384 149.516 C 276.521 150.598,271.232 163.143,266.383 170.867 C 248.972 198.599,253.671 226.613,278.536 243.327 C 314.534 267.523,353.665 243.858,372.167 186.702 C 397.751 107.667,352.293 10.016,294.681 20.250 M104.563 37.752 C 120.721 41.961,131.582 56.215,130.687 72.039 C 130.244 79.892,129.275 81.925,119.136 96.277 C 101.348 121.456,101.752 153.481,120.217 182.051 C 135.558 205.786,119.666 235.106,91.461 235.106 C 55.338 235.106,26.377 162.179,40.466 106.696 C 52.276 60.190,79.263 31.162,104.563 37.752 M315.100 38.782 C 335.774 45.905,358.664 87.982,362.780 126.430 C 366.353 159.802,352.985 202.588,332.036 224.826 C 315.649 242.221,286.460 236.524,275.699 213.830 C 270.584 203.042,272.063 193.928,281.197 179.942 C 299.340 152.164,297.703 116.136,277.159 91.065 C 255.575 64.725,282.542 27.565,315.100 38.782 " stroke="none" fill="#000000" fill-rule="evenodd"></path></g></svg>